<?xml version="1.0" standalone="no"?>
<!DOCTYPE svg PUBLIC "-//W3C//DTD SVG 20010904//EN"
 "http://www.w3.org/TR/2001/REC-SVG-20010904/DTD/svg10.dtd">
<svg version="1.0" xmlns="http://www.w3.org/2000/svg"
 width="640.000000pt" height="1280.000000pt" viewBox="0 0 640.000000 1280.000000"
 preserveAspectRatio="xMidYMid meet">
<metadata>
Created by potrace 1.15, written by Peter Selinger 2001-2017
</metadata>
<g transform="translate(0.000000,1280.000000) scale(0.100000,-0.100000)"
fill="#000000" stroke="none">
<path d="M2940 12790 c-286 -22 -458 -59 -709 -154 -227 -86 -329 -156 -602
-413 -326 -306 -520 -552 -669 -848 -97 -192 -126 -292 -176 -605 -9 -58 -23
-118 -32 -135 -20 -38 -29 -201 -41 -720 l-8 -390 -33 -95 c-29 -84 -33 -111
-38 -230 -6 -170 7 -241 49 -270 16 -12 32 -32 35 -46 4 -13 29 -44 56 -68 27
-24 55 -58 61 -77 7 -19 20 -45 29 -59 18 -28 32 -130 48 -370 17 -248 49
-447 86 -547 9 -24 20 -43 25 -43 5 0 9 -24 9 -54 0 -44 5 -60 25 -84 32 -38
55 -93 55 -131 0 -16 14 -50 34 -78 38 -55 56 -108 57 -168 0 -22 9 -71 20
-110 51 -179 59 -227 68 -372 9 -135 13 -159 39 -220 37 -83 205 -665 238
-823 13 -63 24 -138 24 -166 0 -28 7 -73 16 -100 8 -28 18 -110 22 -190 4 -78
12 -148 19 -155 16 -20 29 -110 63 -429 48 -450 85 -703 136 -918 39 -166 36
-185 -70 -534 -24 -82 -68 -246 -96 -365 -162 -680 -176 -726 -302 -998 -109
-234 -178 -425 -178 -491 0 -18 -5 -36 -10 -39 -19 -12 -68 -120 -109 -240
-57 -171 -81 -269 -88 -357 -5 -66 -3 -82 17 -122 41 -86 236 -272 325 -312
146 -64 367 -141 500 -174 341 -84 498 -95 1255 -87 1007 11 1134 33 1628 274
171 83 226 122 274 195 9 14 30 28 48 31 17 4 33 14 36 22 6 15 -21 55 -37 55
-5 0 -42 -33 -82 -72 -140 -139 -424 -277 -697 -338 -52 -12 -124 -32 -159
-46 -111 -44 -226 -49 -1101 -48 -831 0 -983 6 -1020 39 -10 9 -73 27 -141 41
-138 27 -207 48 -353 107 -63 25 -117 40 -146 40 -43 1 -46 2 -42 24 6 29 -32
73 -63 73 -23 0 -85 66 -154 165 -40 56 -50 85 -32 85 9 0 58 -38 159 -127
153 -133 308 -217 404 -218 48 -1 61 -5 74 -23 30 -43 163 -65 494 -82 221
-11 1195 -30 1530 -30 l205 0 275 70 c398 102 455 125 587 235 43 36 85 65 93
65 8 0 48 36 88 80 41 44 78 78 83 75 5 -4 9 -24 9 -46 0 -73 52 -95 100 -44
29 30 23 61 -11 58 -22 -1 -25 2 -21 26 5 35 -29 131 -116 321 -38 85 -73 171
-77 190 -4 19 -56 145 -115 280 -59 135 -113 264 -119 287 -6 23 -28 66 -47
95 -56 83 -64 103 -78 196 -8 50 -26 117 -44 158 -17 38 -36 101 -42 140 -6
38 -29 109 -52 159 -51 113 -88 258 -88 343 0 71 27 162 119 399 28 73 55 163
61 200 15 103 30 480 38 955 l8 426 60 74 c148 179 168 209 244 363 43 88 84
180 90 203 6 24 36 99 66 166 30 68 60 149 66 182 14 65 18 432 6 476 -5 16
-19 30 -37 36 -74 26 -61 118 32 222 81 91 95 159 107 510 10 289 15 331 47
377 26 36 41 83 69 213 27 127 95 328 123 367 27 38 34 73 76 402 72 571 127
917 195 1225 52 238 62 361 50 601 -19 347 -73 693 -146 926 -57 182 -255 556
-389 733 -119 159 -471 468 -644 568 -45 25 -159 71 -290 115 -119 40 -254 90
-301 109 -136 58 -155 63 -247 74 -118 14 -660 21 -803 10z m555 -70 c218 -20
347 -48 491 -106 49 -20 120 -45 158 -56 149 -42 444 -183 577 -278 46 -32
108 -76 137 -96 63 -45 262 -248 318 -325 56 -76 140 -214 209 -344 32 -60 81
-153 110 -205 61 -110 65 -126 105 -405 82 -583 93 -694 94 -890 l1 -190 -61
-210 c-34 -115 -65 -226 -69 -245 l-8 -34 -49 99 c-28 55 -62 112 -76 128 -23
24 -33 27 -91 27 -111 0 -232 -39 -251 -80 -44 -95 -69 -135 -121 -193 -33
-37 -68 -67 -76 -67 -9 0 -31 11 -49 25 -31 24 -34 24 -43 7 -5 -10 -15 -74
-21 -142 -27 -291 -43 -317 -456 -739 -218 -223 -296 -291 -336 -291 -9 0 -57
-21 -105 -46 -104 -55 -126 -63 -218 -74 -38 -5 -95 -20 -125 -34 -112 -51
-314 -44 -416 14 -28 17 -58 30 -67 30 -39 0 -177 158 -177 203 0 11 -14 50
-31 85 l-32 65 8 146 c4 80 9 192 11 249 2 67 7 109 16 119 25 30 23 393 -2
393 -14 0 -21 -31 -26 -129 -11 -181 -47 -221 -44 -47 3 135 3 131 -16 115
-25 -20 -54 -85 -61 -136 l-6 -46 -19 23 c-36 44 -10 109 87 225 100 119 114
142 77 131 -25 -8 -52 24 -91 106 -18 37 -41 73 -52 78 -13 7 -18 18 -14 33 4
19 -8 28 -103 75 -59 29 -126 56 -149 59 -47 6 -101 -9 -157 -45 -21 -13 -60
-27 -85 -31 l-46 -6 3 -40 c2 -23 -8 -75 -23 -122 -31 -98 -44 -194 -45 -328
-2 -179 -26 -180 -44 -2 -7 71 -15 112 -23 115 -19 6 -33 -41 -33 -109 0 -78
-16 -76 -23 4 -4 51 -3 307 2 328 0 3 11 5 24 5 46 -2 30 83 -25 129 -16 14
-36 25 -44 25 -20 0 -17 -41 6 -70 25 -32 25 -44 -1 -98 -17 -35 -23 -69 -27
-161 -6 -160 11 -277 50 -335 20 -31 32 -66 39 -113 5 -37 16 -90 24 -117 17
-55 19 -96 7 -96 -13 0 -38 66 -57 147 -10 41 -32 98 -52 130 -20 32 -44 73
-55 90 -11 18 -33 78 -49 133 -33 113 -38 231 -18 421 12 116 6 169 -17 169
-45 0 -113 -89 -114 -147 0 -13 14 -64 31 -115 30 -89 31 -99 26 -213 -3 -66
-9 -131 -15 -145 -10 -25 -10 -24 -17 11 -4 20 -5 67 -3 103 1 36 0 66 -3 66
-3 0 -18 -27 -34 -60 -16 -33 -33 -60 -38 -60 -18 0 0 90 26 129 37 55 40 148
6 180 -16 15 -20 30 -19 67 3 77 1 82 -22 90 -22 7 -21 8 15 39 20 18 37 35
37 38 0 3 -15 9 -34 13 -34 6 -75 38 -64 50 4 3 23 1 44 -5 47 -13 55 -8 43
31 -5 17 -6 34 -3 37 12 12 54 -51 54 -80 0 -16 4 -29 8 -29 15 0 42 70 42
109 0 41 20 66 77 95 39 19 63 43 63 61 0 15 -58 35 -100 35 -14 0 -45 11 -70
24 -58 31 -68 26 -189 -100 -52 -54 -97 -92 -99 -86 -7 21 49 105 118 177 92
96 110 134 72 154 -23 12 -62 -6 -126 -59 -53 -44 -66 -48 -66 -24 0 16 44 62
130 137 34 28 41 40 32 49 -17 17 -64 -8 -143 -74 -59 -50 -99 -78 -113 -78
-14 0 -3 30 25 68 43 59 69 132 69 195 l0 52 -28 -35 c-43 -56 -104 -120 -113
-120 -12 0 -11 37 1 61 6 10 17 19 25 19 9 0 13 11 13 30 -2 47 83 143 112
125 15 -9 24 23 10 40 -16 19 -51 5 -108 -45 -50 -44 -62 -49 -62 -22 0 25 44
64 105 95 50 25 95 61 95 75 0 42 -100 44 -161 3 -34 -23 -47 -27 -62 -19 -14
7 -17 16 -12 36 13 55 91 157 133 173 26 10 30 50 7 69 -12 10 -27 1 -86 -56
-39 -38 -77 -82 -85 -99 -7 -16 -29 -46 -48 -64 -20 -19 -36 -38 -36 -43 0 -4
16 -22 35 -39 75 -68 88 -201 27 -275 -18 -21 -32 -46 -32 -55 0 -23 -52 -66
-90 -74 -34 -7 -41 -25 -10 -25 41 0 86 -27 100 -59 7 -19 30 -42 55 -56 54
-32 79 -60 72 -80 -9 -22 -20 -19 -72 21 -26 19 -49 33 -52 30 -12 -12 58
-352 82 -398 21 -39 27 -74 38 -210 8 -90 19 -173 26 -185 6 -13 29 -32 50
-42 48 -25 66 -52 86 -132 24 -93 70 -155 197 -264 114 -98 178 -167 178 -191
0 -18 40 -44 69 -44 16 0 40 -16 69 -47 25 -27 64 -57 86 -68 l41 -21 -2 -78
c-6 -167 -65 -426 -97 -426 -7 0 -30 13 -51 30 -21 16 -55 35 -76 40 -21 6
-47 22 -56 35 -10 14 -68 64 -130 111 -117 89 -240 213 -297 299 -19 27 -54
88 -80 135 -26 47 -57 94 -71 105 -21 17 -24 28 -22 75 2 44 -5 70 -30 125
-21 46 -37 103 -46 167 -16 105 -28 132 -109 235 -26 33 -55 77 -63 97 -8 19
-28 56 -44 82 -41 64 -59 152 -72 354 -8 127 -8 224 0 369 19 326 47 494 102
603 17 34 33 88 39 130 11 73 125 379 192 513 96 190 383 540 505 614 29 18
67 51 85 73 61 78 395 278 593 356 238 94 334 119 560 146 72 9 144 17 160 19
67 8 337 6 440 -3z m-995 -3060 c41 -11 94 -84 155 -211 39 -81 43 -115 19
-160 -8 -17 -21 -62 -29 -102 -10 -52 -19 -75 -37 -88 -32 -25 -33 -124 -1
-167 32 -44 42 -94 58 -289 17 -218 33 -301 80 -423 21 -54 40 -121 42 -155 7
-78 17 -95 52 -95 33 0 34 -1 66 -125 29 -114 65 -202 203 -490 125 -261 195
-425 245 -570 40 -117 70 -180 102 -215 38 -41 134 -190 166 -257 16 -34 38
-64 48 -68 11 -3 21 -19 25 -38 3 -18 23 -51 44 -73 45 -49 122 -192 122 -226
0 -31 43 -91 156 -218 121 -138 144 -173 144 -225 0 -45 9 -57 62 -84 18 -9
41 -32 53 -52 11 -20 34 -56 52 -79 119 -156 171 -618 161 -1425 -3 -257 -6
-304 -20 -325 -9 -14 -40 -85 -68 -158 -29 -73 -63 -145 -76 -159 -13 -14 -24
-35 -24 -47 0 -41 -12 -65 -33 -68 -16 -2 -27 -17 -40 -58 -66 -193 -108 -271
-223 -411 -43 -52 -120 -159 -172 -239 -96 -147 -177 -258 -264 -363 -82 -99
-102 -140 -95 -200 3 -29 8 -60 12 -69 7 -17 -12 -18 -306 -17 -284 0 -399 6
-415 21 -2 3 14 52 37 108 31 77 40 112 36 137 -5 27 0 40 22 66 35 40 56 130
47 205 -6 54 -30 112 -45 112 -5 0 -12 -33 -15 -72 -9 -89 -22 -111 -75 -126
-35 -11 -71 -43 -71 -63 0 -3 14 -23 30 -44 17 -22 30 -50 30 -66 0 -24 -7
-31 -37 -44 -41 -17 -103 -72 -103 -90 0 -6 13 -21 29 -32 40 -30 45 -60 16
-89 -17 -17 -35 -24 -63 -24 -66 0 -69 13 -44 153 27 148 27 159 5 155 -23 -4
-61 -62 -73 -112 -39 -151 -37 -150 -226 -112 -281 56 -522 156 -627 261 -40
41 -42 65 -13 168 15 50 54 225 86 387 61 306 84 389 119 437 12 16 25 54 31
85 9 59 26 100 81 198 31 55 31 55 26 175 -4 85 -19 187 -51 350 -25 127 -46
251 -46 278 0 53 20 81 72 99 25 9 29 14 23 37 -8 34 -58 141 -79 166 -15 20
-15 20 -16 -4 0 -43 -22 -151 -30 -151 -15 0 -29 55 -39 147 -7 69 -16 100
-32 123 -21 28 -23 44 -30 252 -17 481 -98 1107 -156 1194 -8 13 -19 58 -24
100 -7 50 -20 97 -40 136 -16 32 -50 116 -75 186 -25 70 -51 137 -59 149 -18
27 -19 55 -3 71 20 20 26 14 43 -39 10 -28 29 -65 44 -82 15 -18 35 -53 45
-79 18 -50 39 -74 56 -63 22 14 1 87 -44 153 -34 48 -50 91 -61 163 -3 20 -26
78 -51 130 -25 51 -59 140 -76 198 -16 59 -39 116 -51 129 -14 15 -23 43 -29
89 -5 47 -20 92 -48 148 -24 47 -40 94 -40 115 0 19 -16 80 -35 135 -48 136
-71 225 -100 390 -34 196 -61 407 -80 635 -9 107 -21 213 -27 234 -6 27 -30
61 -73 105 -34 36 -68 76 -74 89 -32 61 -28 310 6 361 l16 25 16 -22 c9 -13
36 -48 59 -80 49 -64 82 -123 82 -147 0 -9 16 -23 35 -30 34 -15 34 -16 34
-77 0 -48 8 -87 35 -161 21 -58 40 -131 45 -179 8 -75 12 -84 45 -114 19 -18
38 -45 41 -61 16 -71 32 -96 136 -218 157 -184 197 -224 254 -250 28 -12 82
-45 121 -73 87 -62 244 -209 244 -229 0 -22 -28 -70 -45 -77 -9 -3 -25 6 -42
24 -14 17 -34 30 -43 30 -9 0 -37 14 -61 31 -51 36 -169 149 -169 162 0 5 13
6 30 2 43 -9 37 0 -17 31 -110 61 -145 90 -173 138 l-29 50 -6 -30 c-20 -95
-29 -122 -51 -159 -32 -55 -31 -95 3 -136 l27 -32 -26 -22 c-14 -12 -33 -36
-42 -53 -24 -46 -19 -172 6 -172 18 0 47 86 82 244 20 88 38 161 41 164 19 19
201 -153 300 -283 75 -98 97 -145 93 -196 l-3 -42 -59 69 -59 69 7 -40 c50
-301 65 -532 39 -635 -19 -74 -34 -303 -35 -526 -1 -186 1 -215 18 -259 11
-28 26 -50 34 -50 23 0 29 85 23 317 -5 182 -4 210 11 232 13 21 21 24 46 19
35 -7 37 0 10 27 -17 17 -20 33 -20 113 0 163 57 509 149 907 28 118 53 231
56 250 3 20 26 72 53 115 l47 80 0 150 c0 83 -2 242 -4 355 -3 113 -1 215 3
227 4 11 18 24 31 27 36 9 42 48 19 126 -28 94 -26 283 3 362 12 32 32 72 45
90 13 17 28 46 34 62 12 34 42 53 106 65 60 12 78 12 118 1z m2865 -205 c19
-19 63 -93 100 -165 l66 -130 -36 -45 c-41 -49 -119 -105 -147 -105 -35 0 -32
-30 5 -68 45 -46 57 -100 57 -247 0 -217 -38 -450 -89 -539 -41 -73 -62 -82
-227 -94 -143 -10 -209 -27 -221 -57 -3 -9 1 -24 10 -32 13 -13 44 -16 195
-15 128 1 183 -2 195 -11 15 -11 14 -24 -14 -157 -20 -97 -41 -168 -63 -215
-19 -38 -37 -79 -41 -90 -4 -11 -13 -130 -20 -265 -20 -362 -32 -408 -182
-685 -162 -297 -243 -528 -243 -691 0 -93 -10 -120 -82 -227 -71 -105 -96
-185 -66 -215 20 -20 43 -13 80 26 43 44 61 79 81 152 8 30 36 105 61 165 25
61 69 195 99 298 55 191 70 225 87 197 21 -34 60 -276 60 -375 0 -50 -5 -67
-30 -105 -28 -42 -42 -78 -70 -188 -7 -27 -27 -59 -54 -88 -27 -28 -74 -103
-125 -202 -79 -152 -182 -312 -200 -312 -17 0 -90 121 -97 158 -10 65 -24 100
-55 138 -16 20 -35 58 -43 84 -8 26 -23 65 -35 88 -12 23 -21 47 -21 54 0 7
20 25 43 40 170 111 227 165 227 215 0 14 13 36 32 53 27 25 29 30 15 36 -21
8 -62 -22 -182 -135 -101 -95 -161 -141 -182 -141 -32 0 -251 237 -268 290 -4
13 1 33 15 55 21 34 20 75 -1 75 -17 0 -49 65 -49 100 0 53 29 101 80 130 37
22 47 34 58 72 9 32 26 58 58 87 24 23 42 47 38 53 -10 16 -178 4 -207 -15
-13 -9 -32 -32 -42 -53 -16 -34 -18 -35 -28 -18 -30 54 -58 32 -54 -44 3 -81
-18 -82 -97 0 -53 54 -176 233 -176 256 0 4 21 15 48 24 99 36 193 121 164
150 -18 18 -77 -1 -127 -39 -40 -32 -55 -37 -98 -38 -47 0 -52 2 -70 33 -18
31 -97 298 -97 328 0 8 12 17 28 20 47 11 85 35 155 95 63 54 78 64 100 60 4
0 7 10 7 24 0 62 -73 32 -160 -66 -34 -39 -64 -68 -67 -65 -11 11 14 55 89
153 107 142 123 172 105 206 -16 30 -27 25 -27 -11 0 -15 -7 -26 -20 -29 -13
-4 -20 -14 -20 -31 0 -18 -17 -41 -61 -81 -34 -31 -69 -74 -79 -96 -21 -48
-75 -108 -92 -103 -38 13 -153 210 -165 282 l-6 39 51 -6 c86 -10 82 0 -68
183 -134 164 -190 250 -190 293 0 43 36 32 164 -52 94 -61 143 -75 248 -69
107 6 194 34 354 112 255 124 371 206 576 405 219 211 494 507 518 556 15 30
25 76 30 140 13 150 75 256 229 393 156 139 209 158 266 97z m-1062 -6707 c34
-74 58 -283 60 -523 2 -186 -5 -219 -61 -279 -47 -50 -106 -70 -316 -106 -67
-12 -122 -28 -145 -42 -30 -18 -54 -23 -151 -26 -136 -5 -146 0 -125 61 24 71
185 295 350 487 54 63 114 136 133 162 32 42 49 54 104 72 13 4 17 15 15 46
-1 44 21 77 46 67 22 -8 30 -132 22 -341 -4 -99 -9 -189 -12 -199 -4 -14 -13
-18 -41 -16 -21 1 -43 1 -49 0 -19 -2 -16 -47 7 -91 23 -45 19 -62 -18 -81
l-27 -14 37 -3 c23 -2 51 4 75 17 114 61 128 106 112 365 -11 196 -35 433 -45
459 -12 31 13 18 29 -15z m-2649 -817 c129 -109 177 -135 334 -180 77 -23 169
-46 204 -52 90 -16 1364 -24 1533 -10 211 18 459 88 619 175 89 49 120 55 152
32 16 -12 19 -27 19 -108 0 -80 -4 -100 -25 -143 -31 -60 -91 -104 -184 -134
-35 -11 -90 -36 -122 -55 -179 -106 -580 -156 -1244 -156 -634 -1 -845 33
-1119 176 -173 90 -296 204 -338 312 -15 40 -15 45 1 80 22 45 76 132 83 132
3 0 42 -31 87 -69z m-202 -238 c15 -15 28 -37 28 -49 0 -14 8 -25 21 -29 11
-4 18 -12 16 -18 -9 -24 25 -68 83 -107 32 -22 66 -40 74 -40 9 0 35 -14 58
-30 28 -19 78 -39 143 -55 55 -14 116 -37 136 -51 81 -55 294 -75 903 -81 658
-7 909 10 1053 71 33 13 106 38 164 55 126 37 279 112 374 183 65 49 85 74
100 122 6 19 7 18 31 -5 29 -29 172 -417 181 -490 9 -75 -9 -110 -103 -198
-96 -91 -254 -201 -289 -201 -13 0 -28 -8 -34 -17 -7 -13 -28 -19 -78 -24 -37
-3 -95 -13 -128 -22 -91 -25 -530 -85 -703 -97 -199 -13 -774 -13 -978 1 -87
5 -229 21 -314 35 -85 14 -217 34 -293 45 -141 20 -215 42 -323 97 -154 78
-344 258 -379 358 -12 34 -10 42 20 103 33 68 86 207 103 274 6 20 24 54 40
75 38 48 52 76 52 101 0 28 8 26 42 -6z m-212 -756 c14 -15 37 -30 51 -31 15
-2 60 -30 100 -62 150 -121 164 -128 369 -182 169 -45 312 -73 425 -82 55 -5
120 -13 145 -20 30 -8 221 -13 570 -17 532 -5 766 3 796 28 10 9 56 13 147 14
108 1 150 6 232 27 55 15 142 36 194 47 152 33 378 152 540 284 84 68 87 68
139 -7 65 -98 39 -180 -101 -313 -122 -116 -250 -189 -427 -244 -58 -17 -125
-41 -150 -52 -25 -11 -58 -19 -74 -18 -16 1 -95 -12 -175 -28 -309 -63 -913
-87 -1471 -61 -260 13 -400 30 -630 76 -360 72 -503 129 -655 262 -134 118
-215 220 -215 273 0 18 6 28 20 32 24 6 46 56 62 135 l12 56 35 -44 c20 -24
47 -57 61 -73z"/>
<path d="M3036 12449 c-30 -24 -35 -59 -8 -59 25 0 66 45 59 64 -8 21 -19 20
-51 -5z"/>
<path d="M3892 12423 c-48 -69 -78 -153 -53 -153 4 0 21 18 36 40 16 23 36 40
47 40 11 0 63 -31 117 -70 145 -104 209 -127 225 -83 13 33 -3 53 -44 53 -26
0 -40 5 -44 16 -4 11 -13 14 -31 10 -17 -4 -25 -2 -25 7 0 17 -35 50 -75 70
-16 8 -51 33 -77 56 -25 23 -48 41 -51 41 -3 0 -14 -12 -25 -27z"/>
<path d="M3273 12385 c-73 -63 -80 -142 -7 -84 73 58 67 59 158 -33 114 -116
195 -147 226 -87 17 31 5 49 -33 49 -39 0 -108 41 -181 109 -57 54 -95 81
-111 81 -6 0 -30 -16 -52 -35z"/>
<path d="M1934 12134 c-13 -18 -14 -28 -6 -36 15 -15 52 17 52 44 0 26 -27 22
-46 -8z"/>
<path d="M4275 12018 c-72 -13 -76 -24 -19 -50 66 -30 234 -33 277 -5 15 9 27
25 27 34 0 13 -8 15 -50 9 -41 -6 -50 -4 -50 9 0 12 -13 15 -67 14 -38 -1 -90
-6 -118 -11z"/>
<path d="M2434 12006 c-9 -23 13 -80 47 -122 34 -43 34 -44 -23 -158 -22 -43
-46 -108 -53 -144 -8 -36 -19 -70 -24 -75 -27 -27 5 -139 48 -169 13 -9 27
-38 36 -72 9 -32 36 -90 62 -129 65 -101 76 -142 57 -214 -18 -70 -58 -127
-85 -120 -25 7 -35 -27 -32 -118 3 -129 51 -219 137 -260 104 -49 163 -140
172 -262 9 -136 11 -143 42 -143 16 0 32 -8 39 -19 7 -11 27 -22 45 -26 18 -4
58 -26 88 -50 83 -64 122 -85 157 -85 37 0 63 29 63 72 0 26 -3 28 -42 28 -79
0 -243 94 -293 168 -20 29 -25 49 -25 99 0 59 -2 63 -26 69 -15 4 -23 12 -20
20 14 37 -119 174 -170 174 -16 0 -24 6 -24 18 0 9 -16 37 -36 62 -32 41 -35
49 -31 90 3 25 24 102 46 172 60 186 61 193 12 326 -57 154 -117 282 -148 314
-32 33 -26 79 9 75 19 -2 23 5 30 43 4 25 17 57 28 72 11 15 20 43 20 63 0 25
5 37 18 41 34 11 47 21 50 43 6 41 -21 96 -77 154 -66 70 -89 84 -97 63z"/>
<path d="M4511 11398 c-4 -13 -11 -90 -15 -172 -10 -226 -31 -312 -99 -414
-18 -27 -34 -41 -43 -38 -21 8 -84 -52 -84 -80 0 -33 31 -31 84 5 92 64 155
163 192 306 24 90 27 372 5 398 -18 23 -30 21 -40 -5z"/>
<path d="M1770 11239 c0 -39 19 -59 55 -59 44 0 44 10 0 49 -42 36 -55 39 -55
10z"/>
<path d="M5032 10688 c-5 -7 -15 -42 -21 -78 -6 -36 -15 -80 -21 -99 l-10 -35
45 44 c45 44 75 94 75 124 0 17 -34 56 -49 56 -5 0 -13 -6 -19 -12z"/>
<path d="M1890 10652 c-26 -21 -20 -42 13 -42 36 0 54 16 41 37 -15 25 -28 26
-54 5z"/>
<path d="M880 10371 c-17 -32 -11 -122 10 -169 17 -38 23 -43 47 -40 36 4 41
34 14 79 -13 21 -21 51 -21 80 0 62 -28 90 -50 50z"/>
<path d="M4075 10318 c-7 -18 -11 -35 -8 -38 7 -7 43 40 43 56 0 26 -21 14
-35 -18z"/>
<path d="M1943 10278 c-36 -17 -27 -29 19 -26 31 2 44 8 46 21 4 20 -29 22
-65 5z"/>
<path d="M3961 10184 c-96 -70 -180 -98 -289 -92 -55 2 -89 9 -120 26 -55 29
-67 28 -147 -9 -51 -24 -87 -33 -148 -38 -78 -6 -82 -7 -91 -34 -15 -41 1 -49
95 -48 90 1 143 12 203 43 l39 20 42 -21 c51 -25 148 -45 181 -37 13 4 34 16
46 29 15 15 50 28 104 40 117 25 169 66 189 150 11 42 -19 34 -104 -29z"/>
<path d="M2446 10175 c-29 -29 -15 -80 20 -73 24 4 31 59 11 77 -12 9 -18 8
-31 -4z"/>
<path d="M5155 9994 c-16 -8 -39 -24 -51 -35 -26 -25 -62 -35 -155 -44 -81 -8
-109 -18 -109 -40 0 -8 -14 -30 -31 -50 -30 -34 -31 -36 -15 -60 24 -37 59
-33 84 9 17 28 29 36 72 45 28 6 70 11 93 11 56 0 96 26 136 88 47 73 36 107
-24 76z"/>
<path d="M4267 9876 c-105 -23 -121 -76 -22 -76 84 0 165 41 133 67 -24 19
-53 21 -111 9z"/>
<path d="M4520 9681 c-15 -29 -13 -144 4 -166 27 -38 126 -11 126 35 0 9 -16
31 -35 50 -19 18 -40 49 -46 67 -12 37 -33 43 -49 14z"/>
<path d="M1820 9565 c-17 -20 -10 -186 9 -209 23 -27 32 1 25 77 -6 62 -5 70
16 92 13 14 20 31 17 39 -8 20 -51 21 -67 1z"/>
<path d="M4549 9399 c-19 -21 -39 -63 -59 -128 -31 -102 -49 -127 -96 -140
-23 -6 -31 -17 -45 -62 -9 -30 -45 -119 -78 -199 -34 -79 -75 -189 -91 -245
-15 -55 -33 -113 -39 -129 -11 -27 -12 -28 -30 -12 -18 16 -19 15 -25 -17 -4
-19 -14 -41 -24 -49 -20 -18 -78 -39 -86 -31 -3 3 15 30 39 60 25 30 45 62 45
71 0 10 30 80 66 157 97 207 179 421 199 522 8 39 -9 51 -37 27 -29 -27 -103
-186 -127 -274 -33 -119 -134 -342 -229 -507 -37 -65 -51 -74 -72 -47 -12 13
-19 9 -60 -31 -25 -25 -49 -43 -52 -40 -10 10 12 76 54 160 44 89 87 143 99
123 9 -14 -4 -41 -32 -69 -12 -12 -19 -33 -19 -56 l0 -36 22 19 c40 36 78 106
78 146 0 27 4 38 15 38 21 0 29 24 15 49 -7 14 -21 21 -40 21 -39 0 -39 18 1
88 54 96 91 292 54 292 -8 0 -19 -10 -26 -21 -21 -41 -129 -350 -131 -377 -1
-15 -17 -54 -34 -87 -18 -33 -49 -107 -68 -164 -53 -153 -89 -214 -147 -252
-27 -17 -60 -44 -74 -61 -24 -28 -33 -67 -19 -81 9 -8 42 10 82 44 48 43 106
69 186 85 85 18 132 38 206 88 45 31 60 36 88 31 24 -4 43 -1 68 15 37 21 54
19 54 -7 0 -24 22 -2 104 102 100 126 138 180 180 255 l37 65 -7 -52 c-4 -34
-3 -53 4 -53 21 0 222 339 242 409 15 54 -6 57 -33 5 -29 -57 -106 -164 -119
-164 -15 0 -8 20 48 133 65 128 104 227 104 260 -1 21 -2 20 -28 -9 -15 -17
-46 -64 -70 -105 -23 -41 -67 -105 -96 -143 -30 -38 -80 -119 -112 -180 -64
-125 -79 -146 -106 -146 -27 0 -25 65 3 81 17 9 20 17 14 45 -5 29 -1 40 20
66 53 62 199 380 231 501 11 41 10 47 -3 47 -8 0 -28 -14 -44 -31z"/>
<path d="M3935 9375 c-29 -29 -32 -55 -7 -55 23 0 62 40 62 63 0 25 -27 21
-55 -8z"/>
<path d="M2927 9303 c-4 -3 -7 -43 -7 -88 0 -53 -5 -88 -14 -100 -12 -16 -12
-22 2 -43 18 -27 13 -123 -18 -352 -28 -211 -35 -349 -21 -393 14 -43 25 -40
47 11 21 51 34 27 34 -63 l1 -70 21 40 22 40 6 -29 c7 -38 34 -56 53 -36 38
40 48 132 18 164 -22 24 -43 155 -22 142 6 -4 11 -14 11 -22 0 -19 25 -18 56
2 13 9 27 14 31 10 3 -3 1 -43 -5 -88 -7 -46 -12 -94 -12 -108 0 -46 22 -4 46
91 25 96 44 136 70 146 23 9 27 -3 9 -30 -20 -31 -31 -69 -55 -191 -21 -108
-30 -125 -50 -101 -17 20 -30 19 -30 -4 0 -10 -16 -38 -35 -62 -36 -45 -44
-86 -23 -107 21 -21 43 -13 109 40 153 124 188 132 104 24 -43 -56 -56 -86
-35 -86 8 0 54 31 223 150 32 23 75 44 95 47 20 3 43 10 50 16 27 21 60 105
95 240 20 75 46 150 57 165 24 32 94 227 104 288 6 35 4 45 -19 72 -54 64 -90
20 -44 -54 28 -46 24 -62 -82 -294 -106 -234 -110 -242 -127 -248 -18 -6 -8
31 50 175 55 137 70 197 46 188 -22 -9 -78 -107 -85 -149 -4 -27 -13 -40 -29
-46 -16 -6 -21 -15 -17 -28 6 -26 -11 -57 -66 -118 -31 -35 -42 -42 -37 -26 3
12 9 32 12 45 3 12 44 101 90 197 128 267 160 430 85 430 -57 0 -72 -31 -184
-405 -58 -192 -106 -340 -106 -327 -2 63 44 303 79 414 54 175 57 194 31 203
-26 8 -26 12 -1 66 21 47 26 104 11 114 -13 8 -25 -15 -71 -146 -22 -61 -44
-117 -48 -125 -4 -8 -6 31 -4 86 4 86 2 100 -11 100 -24 0 -31 -18 -42 -105
-7 -60 -14 -80 -25 -80 -21 0 -39 59 -39 132 -1 58 -3 62 -31 77 l-31 15 7
-92 7 -92 -28 25 c-40 37 -55 80 -55 163 0 80 -14 137 -35 137 -18 0 -25 -23
-35 -115 -8 -80 -25 -135 -42 -135 -5 0 -5 24 -1 53 13 94 9 163 -10 184 -9
11 -17 32 -17 46 0 25 -18 36 -33 20z"/>
<path d="M1842 9220 c0 -58 1 -61 9 -29 4 20 4 49 -1 65 -7 23 -8 16 -8 -36z"/>
<path d="M3220 9213 c0 -55 6 -68 38 -77 34 -11 38 17 8 61 -14 21 -26 43 -26
50 0 7 -4 13 -10 13 -5 0 -10 -21 -10 -47z"/>
<path d="M3923 9208 c-20 -26 -53 -118 -53 -146 0 -62 32 -49 60 24 30 81 25
164 -7 122z"/>
<path d="M4103 9133 c-26 -48 -70 -184 -78 -244 -4 -31 -14 -54 -30 -69 -46
-43 -21 -95 27 -57 19 14 83 200 94 271 5 34 15 57 32 73 21 19 24 28 16 41
-19 29 -39 24 -61 -15z"/>
<path d="M3721 8924 c-24 -31 -25 -39 -10 -83 14 -41 24 -39 43 9 33 83 12
131 -33 74z"/>
<path d="M1685 8520 c-9 -29 -1 -36 57 -56 28 -9 67 -32 85 -50 36 -36 63 -43
83 -19 18 22 3 52 -43 83 -87 59 -171 78 -182 42z"/>
<path d="M1840 8335 c-15 -18 -4 -52 19 -60 26 -8 51 4 51 25 0 32 -51 57 -70
35z"/>
<path d="M3341 8037 c-9 -12 -8 -18 4 -31 29 -29 80 -15 73 20 -4 24 -59 31
-77 11z"/>
<path d="M2390 9537 c0 -45 88 -117 120 -97 20 13 7 45 -17 42 -15 -2 -27 6
-40 25 -10 15 -22 31 -28 35 -16 12 -35 9 -35 -5z"/>
<path d="M2321 9435 c-84 -78 -84 -73 -1 -312 40 -114 90 -245 111 -290 42
-88 82 -131 105 -112 22 18 16 65 -11 97 -14 17 -28 45 -31 64 -10 55 -39 127
-108 267 -80 163 -83 184 -26 260 22 29 40 57 40 62 0 21 -34 6 -79 -36z"/>
<path d="M2546 8388 c-21 -72 -40 -201 -71 -473 -55 -493 -191 -1435 -216
-1504 -38 -103 -58 -186 -58 -243 -1 -64 13 -82 40 -49 36 45 142 566 204
1006 14 99 33 214 42 255 l18 75 3 -55 c2 -30 -7 -280 -20 -555 -20 -444 -22
-604 -22 -1435 1 -937 4 -1044 39 -1305 22 -159 35 -217 48 -212 25 8 29 150
13 437 -13 220 -16 480 -16 1135 1 1147 15 2212 29 2248 l11 28 37 -26 c21
-14 43 -25 49 -25 6 0 13 -25 16 -58 7 -67 42 -157 71 -177 11 -8 23 -33 28
-62 5 -26 18 -60 29 -75 41 -56 111 -263 125 -373 15 -122 93 -348 126 -365
11 -6 19 -21 19 -35 0 -14 13 -38 30 -56 28 -27 31 -36 28 -82 -3 -50 -4 -52
-30 -50 -18 1 -29 -4 -32 -15 -7 -22 11 -133 23 -145 5 -5 25 6 50 28 23 21
43 36 45 34 2 -2 12 -33 21 -69 76 -296 226 -734 266 -774 32 -33 -14 179 -86
399 -20 61 -52 172 -71 248 -19 76 -52 177 -74 225 -21 48 -50 133 -64 188
-14 56 -37 124 -51 150 -13 27 -50 137 -81 244 -31 108 -77 242 -104 300 -26
58 -58 136 -70 175 -43 136 -178 406 -230 460 -73 75 -94 187 -85 441 8 196
-1 239 -29 142z"/>
<path d="M1597 7593 c-13 -12 -7 -24 39 -73 65 -69 94 -69 53 0 -40 66 -73 93
-92 73z"/>
<path d="M1410 7568 c1 -36 35 -103 65 -126 32 -25 58 -28 75 -8 21 26 8 60
-30 78 -19 9 -48 30 -64 47 -35 37 -46 39 -46 9z"/>
<path d="M1576 7314 c-33 -33 -11 -120 32 -131 19 -4 30 0 44 17 22 27 23 52
3 89 -21 42 -53 52 -79 25z"/>
<path d="M1870 6865 c-17 -20 -5 -45 20 -45 11 0 23 7 26 15 6 15 -11 45 -26
45 -4 0 -13 -7 -20 -15z"/>
<path d="M1990 6711 c-5 -11 -10 -29 -10 -41 0 -12 -11 -45 -24 -73 -28 -61
-40 -132 -62 -362 -11 -121 -21 -181 -34 -210 -11 -22 -24 -75 -30 -117 -18
-143 -32 -461 -28 -638 5 -174 13 -220 42 -220 32 0 43 82 56 412 14 386 28
585 51 703 10 55 30 176 43 268 18 115 33 183 48 214 l23 45 -24 19 c-29 24
-38 24 -51 0z"/>
<path d="M3246 6592 c-12 -20 93 -408 155 -573 96 -254 209 -664 209 -757 0
-10 9 -31 21 -46 15 -19 25 -54 34 -126 10 -78 20 -111 45 -154 23 -41 35 -80
45 -148 14 -93 36 -140 69 -146 24 -5 21 33 -8 93 -14 28 -29 84 -34 129 -7
53 -17 88 -32 108 -25 34 -26 32 20 44 27 7 37 17 45 41 6 17 19 41 29 52 15
17 17 30 11 78 -16 140 -65 323 -86 323 -12 0 -11 -15 6 -145 29 -212 14 -278
-49 -232 -17 13 -18 15 -3 38 9 14 19 57 23 96 6 62 4 76 -15 106 -11 19 -21
48 -21 64 0 32 -25 186 -36 219 -3 11 10 2 30 -20 20 -22 37 -37 39 -35 7 8
29 167 29 203 0 40 -19 96 -33 96 -5 0 -9 -27 -9 -59 0 -74 -6 -91 -34 -91
-25 0 -57 32 -107 105 l-34 50 -3 -44 c-3 -35 3 -54 29 -95 29 -48 40 -85 73
-266 19 -102 -70 97 -112 250 -11 41 -27 100 -35 130 -9 30 -29 93 -46 140
-16 47 -37 128 -45 180 -33 202 -137 444 -170 392z"/>
<path d="M2674 6304 c-3 -25 -4 -157 -1 -292 4 -210 8 -258 26 -322 12 -41 30
-142 41 -225 27 -195 38 -252 61 -297 10 -20 27 -86 39 -148 11 -61 31 -137
44 -168 15 -36 27 -86 31 -136 3 -44 12 -91 20 -106 8 -15 25 -94 39 -176 47
-280 77 -398 101 -408 9 -3 18 1 22 10 13 34 -6 220 -31 301 -14 46 -29 123
-35 172 -6 59 -18 106 -34 138 -51 100 -138 553 -135 693 1 19 -8 61 -20 92
-27 71 -55 241 -82 503 -33 315 -50 415 -70 415 -5 0 -12 -21 -16 -46z"/>
<path d="M3460 6257 c0 -79 55 -287 82 -303 23 -15 27 15 9 72 -11 32 -30 98
-42 147 -12 48 -28 95 -35 105 -12 15 -13 12 -14 -21z"/>
<path d="M3545 6201 c-9 -28 13 -105 41 -142 19 -26 24 -46 24 -89 0 -42 7
-70 28 -110 36 -72 52 -76 52 -12 0 87 -82 326 -123 360 -13 11 -16 10 -22 -7z"/>
<path d="M3160 6092 c0 -27 11 -80 23 -118 13 -38 27 -100 30 -139 9 -96 44
-224 142 -526 46 -141 88 -282 94 -313 12 -65 18 -79 32 -71 25 16 2 249 -30
314 -10 20 -22 65 -26 101 -11 105 -21 141 -121 442 -106 320 -120 358 -134
358 -6 0 -10 -22 -10 -48z"/>
<path d="M2295 5928 c-51 -125 -65 -165 -65 -188 0 -31 23 -56 41 -45 17 11
39 71 39 108 0 18 11 56 25 83 28 54 26 74 -5 74 -14 0 -25 -11 -35 -32z"/>
<path d="M3040 5846 c0 -19 9 -64 21 -101 11 -37 24 -92 29 -122 5 -30 16 -60
24 -67 22 -16 43 -72 131 -336 42 -129 93 -268 111 -308 19 -41 34 -80 34 -87
0 -7 -17 -17 -37 -22 -35 -8 -38 -11 -41 -49 -2 -28 9 -72 33 -140 34 -93 46
-131 59 -196 5 -23 58 -68 80 -68 13 0 5 50 -30 191 -52 209 -52 209 -47 209
10 0 63 -132 97 -241 20 -64 46 -130 59 -145 17 -22 22 -42 22 -89 0 -52 3
-61 21 -69 17 -8 23 -21 27 -65 5 -60 55 -215 92 -290 13 -25 44 -105 68 -177
57 -165 106 -284 118 -284 5 0 14 11 19 25 13 35 -4 107 -35 153 -20 30 -25
49 -25 103 0 60 -3 68 -24 83 -18 11 -27 29 -31 60 -5 30 -17 55 -40 79 -19
20 -35 50 -39 73 -15 82 -137 494 -177 594 -23 58 -92 256 -154 440 -62 184
-133 380 -158 435 -25 55 -58 150 -73 210 -28 116 -53 175 -87 213 -30 32 -47
28 -47 -12z"/>
<path d="M3802 5698 c-17 -17 -15 -114 3 -148 22 -43 70 -238 120 -488 25
-122 56 -260 70 -305 13 -45 47 -176 75 -291 27 -115 58 -237 69 -270 41 -130
39 -192 -7 -191 -22 0 -28 -5 -30 -25 -5 -52 70 -130 126 -130 12 0 32 10 43
21 30 30 21 87 -31 220 -40 99 -90 251 -90 273 0 24 22 -16 59 -106 60 -146
75 -164 111 -128 26 26 25 54 -4 83 -14 14 -38 70 -61 138 -21 63 -40 120 -43
128 -4 10 4 12 36 6 50 -8 54 3 16 52 -29 39 -37 40 -71 13 -56 -44 -95 -14
-112 86 -28 160 -42 214 -60 223 -12 7 -16 18 -14 38 3 15 -18 143 -46 283
-27 140 -59 304 -71 364 -12 60 -25 117 -31 127 -14 27 -43 41 -57 27z"/>
<path d="M3925 5621 c-6 -20 10 -178 25 -245 19 -85 102 -350 121 -387 21 -42
39 -44 39 -4 0 25 -55 267 -111 487 -40 160 -58 197 -74 149z"/>
<path d="M2260 5574 c-53 -46 -73 -102 -49 -145 9 -17 13 -18 26 -7 22 18 73
127 73 156 0 29 -11 28 -50 -4z"/>
<path d="M2190 5150 c0 -53 -4 -63 -32 -96 -31 -35 -31 -37 -13 -50 27 -20 39
-18 67 11 30 30 53 103 43 136 -9 31 -34 59 -52 59 -9 0 -13 -16 -13 -60z"/>
<path d="M3850 5036 c0 -39 26 -69 36 -42 7 18 -14 76 -27 76 -5 0 -9 -15 -9
-34z"/>
<path d="M3877 4923 l-15 -27 -13 22 c-22 35 -29 26 -29 -37 0 -73 11 -104 55
-152 33 -37 75 -110 89 -156 11 -34 -13 -29 -45 10 -27 31 -28 32 -42 12 -9
-11 -24 -20 -34 -20 -28 0 -32 -94 -4 -119 25 -22 120 -33 151 -16 21 11 22
17 17 84 -3 39 -18 114 -35 166 -16 52 -32 125 -36 162 -4 37 -9 75 -12 83 -9
23 -32 18 -47 -12z"/>
<path d="M4100 4901 c-19 -36 -12 -86 15 -111 23 -22 27 -22 41 -8 19 19 22
101 4 123 -17 21 -47 19 -60 -4z"/>
<path d="M2262 4840 c-39 -42 -55 -140 -72 -455 -5 -104 -13 -307 -16 -450 -7
-250 -6 -261 13 -284 13 -16 26 -22 36 -18 25 9 23 88 -2 111 -19 17 -19 19
-1 69 17 47 25 127 47 427 4 62 2 78 -11 89 -20 17 -20 48 -1 95 9 21 20 95
25 174 5 75 13 165 16 200 7 67 -1 77 -34 42z"/>
<path d="M4134 4706 c-6 -26 5 -55 32 -76 35 -30 54 46 21 88 -16 21 -46 14
-53 -12z"/>
<path d="M3864 4333 c8 -77 40 -154 89 -216 18 -23 38 -54 45 -69 12 -30 31
-35 50 -16 17 17 15 24 -9 46 -21 20 -31 70 -44 224 l-6 67 -47 15 c-82 29
-86 26 -78 -51z"/>
<path d="M4030 4334 c0 -102 48 -273 72 -258 13 8 3 75 -28 194 -30 113 -44
134 -44 64z"/>
<path d="M3496 4293 c-9 -38 17 -165 47 -233 13 -30 32 -84 41 -120 22 -78 33
-95 52 -79 22 18 17 51 -28 187 -23 70 -49 158 -58 197 -17 77 -43 100 -54 48z"/>
<path d="M3373 4274 c-9 -23 -9 -91 0 -136 4 -20 23 -55 41 -77 24 -29 39 -63
55 -126 12 -47 41 -129 65 -183 24 -53 62 -160 85 -237 59 -198 119 -319 149
-301 20 12 13 63 -12 93 -35 42 -43 62 -56 133 -6 35 -22 84 -34 109 -13 25
-28 74 -34 108 -6 35 -31 109 -56 165 -24 57 -51 129 -59 162 -9 32 -30 76
-46 97 -27 32 -31 46 -31 96 0 32 -6 69 -13 83 -15 30 -45 38 -54 14z"/>
<path d="M1942 4145 c-20 -43 -15 -133 9 -172 17 -27 23 -60 30 -151 11 -150
18 -192 35 -219 27 -43 64 -17 79 55 6 28 2 36 -24 59 -39 35 -39 57 0 94 l31
29 -26 63 c-14 34 -35 98 -47 142 -32 121 -62 155 -87 100z"/>
<path d="M3359 3999 c-18 -18 -21 -30 -17 -83 3 -48 14 -80 50 -151 25 -49 53
-115 61 -145 9 -30 34 -79 56 -108 28 -37 43 -69 51 -110 23 -120 124 -355
188 -434 18 -23 32 -56 36 -82 8 -48 25 -70 53 -64 39 7 30 116 -17 209 -12
22 -52 74 -89 114 -71 77 -81 98 -127 273 -8 29 -44 126 -80 215 -41 100 -74
198 -86 257 -25 124 -27 130 -44 130 -8 0 -23 -9 -35 -21z"/>
<path d="M3080 3940 c0 -22 34 -44 56 -36 19 7 18 42 -2 50 -31 12 -54 6 -54
-14z"/>
<path d="M3643 3824 c-8 -22 24 -134 69 -237 81 -188 149 -415 163 -547 3 -35
11 -72 16 -82 12 -22 71 -24 89 -3 23 27 -8 156 -76 312 -24 56 -71 175 -103
265 -88 243 -140 339 -158 292z"/>
<path d="M4064 3646 c-10 -27 1 -71 18 -74 24 -5 42 42 28 69 -12 22 -38 25
-46 5z"/>
<path d="M2590 3615 c-11 -13 -11 -19 3 -32 21 -21 49 -9 45 19 -4 28 -30 35
-48 13z"/>
<path d="M2743 3194 c-7 -19 2 -101 18 -155 7 -22 27 -55 43 -72 l31 -32 3 31
c2 16 -1 72 -6 124 -8 71 -14 97 -28 107 -24 18 -53 16 -61 -3z"/>
<path d="M3579 3049 c-24 -15 -12 -81 33 -186 48 -109 63 -133 84 -133 46 0
16 209 -42 286 -25 34 -54 47 -75 33z"/>
<path d="M3387 2864 c-44 -29 -44 -48 -4 -78 24 -18 29 -19 37 -6 5 8 10 26
10 40 0 22 3 20 25 -18 51 -90 98 -132 148 -132 20 0 27 5 27 18 0 22 -22 43
-67 66 -41 21 -42 36 -4 36 62 0 48 36 -31 76 -61 31 -94 30 -141 -2z"/>
<path d="M3311 2708 c-17 -46 23 -78 100 -78 44 0 49 13 17 41 -23 19 -92 59
-103 59 -3 0 -9 -10 -14 -22z"/>
<path d="M3305 2496 c-20 -69 -17 -135 8 -150 45 -27 74 78 44 163 -18 53 -34
49 -52 -13z"/>
<path d="M5157 9350 c-40 -32 -106 -137 -123 -199 -9 -31 -40 -102 -70 -157
-30 -56 -54 -111 -54 -122 0 -35 11 -52 36 -52 26 0 41 33 30 68 -5 14 1 24
19 36 14 9 25 24 25 34 0 29 105 176 191 267 87 93 89 99 28 131 -37 19 -52
18 -82 -6z"/>
<path d="M5144 8953 c-7 -27 4 -54 24 -61 16 -5 35 36 28 64 -9 34 -44 32 -52
-3z"/>
<path d="M4840 8632 c-78 -78 -126 -134 -142 -167 -20 -44 -28 -50 -61 -56
-20 -3 -49 -17 -63 -30 -48 -45 -73 -139 -37 -139 23 0 269 250 354 360 146
187 120 203 -51 32z"/>
<path d="M5213 8373 c-19 -7 -16 -31 6 -43 26 -13 33 -13 56 4 36 26 -16 58
-62 39z"/>
<path d="M3561 7025 c-99 -103 -123 -145 -83 -145 40 0 144 95 181 165 21 41
28 85 12 85 -5 0 -54 -47 -110 -105z"/>
<path d="M4388 5886 c-9 -12 -34 -28 -57 -34 -47 -15 -81 -53 -81 -93 0 -16 2
-29 5 -29 35 0 140 101 151 145 9 34 3 38 -18 11z"/>
<path d="M4030 5861 c0 -15 86 -116 114 -134 29 -19 52 -22 61 -6 8 11 -57 75
-122 120 -45 31 -53 34 -53 20z"/>
</g>
</svg>
